<svg xmlns="http://www.w3.org/2000/svg" xmlns:oryx="http://oryx-editor.org" id="_F507974A-74C1-4C41-BC70-0CFABDE7BC62" width="533" height="263" xmlns:xlink="http://www.w3.org/1999/xlink" xmlns:svg="http://www.w3.org/2000/svg"><defs><marker id="_C1040B52-1EE1-44E2-B83D-1DB914B625DCstart" refX="1" refY="5" markerUnits="userSpaceOnUse" markerWidth="17" markerHeight="11" orient="auto" fill="#000000" stroke="#000000"> 	  		<path id="_C1040B52-1EE1-44E2-B83D-1DB914B625DCconditional" d="M 0 5 L 8 0 L 16 5 L 8 10 L 0 5" fill="white" stroke="#000000" stroke-width="1" display="none"/> 			<path id="_C1040B52-1EE1-44E2-B83D-1DB914B625DCdefault" d="M 5 0 L 11 10" fill="white" stroke="#000000" stroke-width="1" display="none"/> 	  	</marker><marker id="_C1040B52-1EE1-44E2-B83D-1DB914B625DCend" refX="15" refY="6" markerUnits="userSpaceOnUse" markerWidth="15" markerHeight="12" orient="auto" fill="#000000" stroke="#000000"> 	  		<path id="_C1040B52-1EE1-44E2-B83D-1DB914B625DCframe2" d="M 0 1 L 15 6 L 0 11z" fill="#000000" stroke="#000000" stroke-linejoin="round" stroke-width="2"/> 	  	</marker><marker id="_9F43C141-8D70-4C0A-B80F-9C18913FFDD9start" refX="1" refY="5" markerUnits="userSpaceOnUse" markerWidth="17" markerHeight="11" orient="auto" fill="#000000" stroke="#000000"> 	  		<path id="_9F43C141-8D70-4C0A-B80F-9C18913FFDD9conditional" d="M 0 5 L 8 0 L 16 5 L 8 10 L 0 5" fill="white" stroke="#000000" stroke-width="1" display="none"/> 			<path id="_9F43C141-8D70-4C0A-B80F-9C18913FFDD9default" d="M 5 0 L 11 10" fill="white" stroke="#000000" stroke-width="1" display="none"/> 	  	</marker><marker id="_9F43C141-8D70-4C0A-B80F-9C18913FFDD9end" refX="15" refY="6" markerUnits="userSpaceOnUse" markerWidth="15" markerHeight="12" orient="auto" fill="#000000" stroke="#000000"> 	  		<path id="_9F43C141-8D70-4C0A-B80F-9C18913FFDD9frame2" d="M 0 1 L 15 6 L 0 11z" fill="#000000" stroke="#000000" stroke-linejoin="round" stroke-width="2"/> 	  	</marker><marker id="_B8634AB8-D7A0-4287-A20D-9F35DED76285start" refX="1" refY="5" markerUnits="userSpaceOnUse" markerWidth="17" markerHeight="11" orient="auto" fill="#000000" stroke="#000000"> 	  		<path id="_B8634AB8-D7A0-4287-A20D-9F35DED76285conditional" d="M 0 5 L 8 0 L 16 5 L 8 10 L 0 5" fill="white" stroke="#000000" stroke-width="1" display="none"/> 			<path id="_B8634AB8-D7A0-4287-A20D-9F35DED76285default" d="M 5 0 L 11 10" fill="white" stroke="#000000" stroke-width="1" display="none"/> 	  	</marker><marker id="_B8634AB8-D7A0-4287-A20D-9F35DED76285end" refX="15" refY="6" markerUnits="userSpaceOnUse" markerWidth="15" markerHeight="12" orient="auto" fill="#000000" stroke="#000000"> 	  		<path id="_B8634AB8-D7A0-4287-A20D-9F35DED76285frame2" d="M 0 1 L 15 6 L 0 11z" fill="#000000" stroke="#000000" stroke-linejoin="round" stroke-width="2"/> 	  	</marker></defs><g stroke="none" font-family="Verdana, sans-serif" font-size-adjust="none" font-style="normal" font-variant="normal" font-weight="normal" line-heigth="normal" font-size="12"><g class="stencils" transform="translate(15, 14)"><g class="me"/><g class="children"><g id="_D75B6502-A12F-4541-BC61-AD3F61A9C929" bpmn2nodeid="processStartEvent"><g class="stencils" transform="translate(120, 165)"><g class="me"><g pointer-events="fill" id="_D75B6502-A12F-4541-BC61-AD3F61A9C929">        <defs id="_D75B6502-A12F-4541-BC61-AD3F61A9C929__D75B6502-A12F-4541-BC61-AD3F61A9C929_5"> 		<radialGradient id="_D75B6502-A12F-4541-BC61-AD3F61A9C929background" cx="10%" cy="10%" r="100%" fx="10%" fy="10%"> 			<stop offset="0%" stop-color="#ffffff" stop-opacity="1" id="_D75B6502-A12F-4541-BC61-AD3F61A9C929__D75B6502-A12F-4541-BC61-AD3F61A9C929_6"/> 			<stop id="_D75B6502-A12F-4541-BC61-AD3F61A9C929fill_el" offset="100%" stop-color="#9acd32" stop-opacity="1"/> 		</radialGradient> 	</defs> 	     <circle id="_D75B6502-A12F-4541-BC61-AD3F61A9C929bg_frame" cx="15" cy="15" r="15" stroke="#000000" fill="url(#_D75B6502-A12F-4541-BC61-AD3F61A9C929background) white" stroke-width="1" style="stroke-dasharray: 5.5, 3"/>      <circle id="_D75B6502-A12F-4541-BC61-AD3F61A9C929frame" cx="15" cy="15" r="15" stroke="#000000" fill="none" stroke-width="1" display="inherit"/>  	<text font-size="11" id="_D75B6502-A12F-4541-BC61-AD3F61A9C929text_name" x="15" y="32" oryx:align="top center" stroke="black" stroke-width="0pt" letter-spacing="-0.01px" fill="#000000" text-anchor="middle" transform="rotate(0 15 32)" visibility="inherit" oryx:fontSize="11"/>   </g></g><g class="children" style="overflow:hidden"/><g class="edge"/></g><g class="controls"><g class="dockers"/><g class="magnets" transform="translate(120, 165)"><g pointer-events="all" display="none" transform="translate(7, 7)"><circle cx="8" cy="8" r="4" stroke="none" fill="red" fill-opacity="0.3"/></g></g></g></g><g id="_898AC640-CB92-4B77-B369-D0612FE497C7" bpmn2nodeid="_3A5FF740-74B2-44AF-A43D-5148EB7D985F"><g class="stencils" transform="translate(330, 140)"><g class="me"><g pointer-events="fill" oryx:minimumSize="50 40" id="_898AC640-CB92-4B77-B369-D0612FE497C7">   	<defs id="_898AC640-CB92-4B77-B369-D0612FE497C7__898AC640-CB92-4B77-B369-D0612FE497C7_17"> 		<radialGradient id="_898AC640-CB92-4B77-B369-D0612FE497C7background" cx="10%" cy="10%" r="100%" fx="10%" fy="10%"> 			<stop offset="0%" stop-color="#ffffff" stop-opacity="1" id="_898AC640-CB92-4B77-B369-D0612FE497C7__898AC640-CB92-4B77-B369-D0612FE497C7_18"/> 			<stop id="_898AC640-CB92-4B77-B369-D0612FE497C7fill_el" offset="100%" stop-color="#fafad2" stop-opacity="1"/> 		</radialGradient> 		<radialGradient id="_898AC640-CB92-4B77-B369-D0612FE497C7borderbackground" cx="10%" cy="10%" r="100%" fx="10%" fy="10%"> 			<stop offset="0%" stop-color="#ffffff" stop-opacity="1" id="_898AC640-CB92-4B77-B369-D0612FE497C7__898AC640-CB92-4B77-B369-D0612FE497C7_19"/> 			<stop id="_898AC640-CB92-4B77-B369-D0612FE497C7fill_border" offset="100%" stop-color="#000000" stop-opacity="1" stroke="#000000"/> 		</radialGradient> 	</defs> 	 	<rect id="_898AC640-CB92-4B77-B369-D0612FE497C7text_frame" oryx:anchors="bottom top right left" x="1" y="1" width="94" height="79" rx="10" ry="10" stroke="none" stroke-width="0" fill="none"/> 	<rect id="_898AC640-CB92-4B77-B369-D0612FE497C7bg_frame" oryx:resize="vertical horizontal" x="0" y="0" width="100" height="80" rx="10" ry="10" stroke="#000000" stroke-width="1" fill="url(#_898AC640-CB92-4B77-B369-D0612FE497C7background) #ffffcc"/> 		<text font-size="12" id="_898AC640-CB92-4B77-B369-D0612FE497C7text_name" x="50" y="40" oryx:align="middle center" oryx:fittoelem="text_frame" stroke="black" text-anchor="middle" stroke-width="0pt" letter-spacing="-0.01px" fill="#000000" transform="rotate(0 50 40)" visibility="inherit" oryx:fontSize="12"><tspan x="50" y="40" dy="5" id="ext-gen743">View Rules</tspan></text>     <g id="_898AC640-CB92-4B77-B369-D0612FE497C7manualTask" transform="scale(0.7,0.7) translate(8,8)" display="none">     	<path oryx:anchors="top left" id="_898AC640-CB92-4B77-B369-D0612FE497C7frame" style="opacity:1;fill:none;fill-opacity:1;stroke-width:1" d="M0.5,3.751l4.083-3.25c0,0,11.166,0.083,12.083,0.083s-2.417,2.917-1.5,2.917     s11.667,0,12.584,0c1.166,1.708-0.168,3.167-0.834,3.667s0.875,1.917-1,4.417c-0.75,0.25,0.75,1.875-1.333,3.333     c-1.167,0.583,0.583,1.542-1.25,2.833c-1.167,0-20.833,0.083-20.833,0.083l-2-1.333V3.751z" stroke="#000000"/> 		<path id="_898AC640-CB92-4B77-B369-D0612FE497C7frame2" oryx:anchors="top left" style="opacity:1;fill:none;stroke-width:2" d="M 13.5 7 L 27 7" stroke="#000000"/> 		<path id="_898AC640-CB92-4B77-B369-D0612FE497C7frame3" oryx:anchors="top left" style="opacity:1;fill:none;stroke-width:2" d="M 13.5 11 L 26 11" stroke="#000000"/> 		<path id="_898AC640-CB92-4B77-B369-D0612FE497C7frame4" oryx:anchors="top left" style="opacity:1;fill:none;stroke-width:1.5" d="M 14 14.5 L 25 14.5" stroke="#000000"/> 		<path id="_898AC640-CB92-4B77-B369-D0612FE497C7frame5" oryx:anchors="top left" style="opacity:1;fill:none;stroke-width:1.5" d="M 8.2 3.1 L 15 3.1" stroke="#000000"/> 	</g> 	 	<g id="_898AC640-CB92-4B77-B369-D0612FE497C7businessRuleTask" transform="scale(0.7,0.7) translate(8,8)" display="inherit"> 		<rect id="_898AC640-CB92-4B77-B369-D0612FE497C7frame6" oryx:anchors="top left" x="0" y="0" width="22" height="4" style="opacity:1;fill:#B3B1B3;fill-opacity:1;" stroke="#000000"/> 		<rect id="_898AC640-CB92-4B77-B369-D0612FE497C7frame7" oryx:anchors="top left" x="0" y="4" style="opacity:1;fill:none;" width="22" height="12" stroke="#000000"/> 		<path id="_898AC640-CB92-4B77-B369-D0612FE497C7frame8" oryx:anchors="top left" style="opacity:1;fill:none;" d="M 0 10 L 22 10" stroke="#000000"/> 		<path id="_898AC640-CB92-4B77-B369-D0612FE497C7frame9" oryx:anchors="top left" style="opacity:1; fill:none;" d="M 7 4 L 7 16" stroke="#000000"/> 	</g> 	 	<g id="_898AC640-CB92-4B77-B369-D0612FE497C7scriptTask" transform="scale(0.7,0.7) translate(8,8)" display="none"> 		<path oryx:anchors="top left" id="_898AC640-CB92-4B77-B369-D0612FE497C7frame10" style="opacity:1;fill:none;" stroke="#000000" d="M6.402,0.5h14.5c0,0-5.833,2.833-5.833,5.583s4.417,6,4.417,9.167    s-4.167,5.083-4.167,5.083H0.235c0,0,5-2.667,5-5s-4.583-6.75-4.583-9.25S6.402,0.5,6.402,0.5z"/> 		<path oryx:anchors="top left" id="_898AC640-CB92-4B77-B369-D0612FE497C7frame11" style="opacity:1;fill:none;stroke-width:1.5" d="M 3.5 4.5 L 13.5 4.5" stroke="#000000"/> 		<path oryx:anchors="top left" id="_898AC640-CB92-4B77-B369-D0612FE497C7frame12" style="opacity:1;fill:none;stroke-width:1.5" d="M 3.8 8.5 L 13.8 8.5" stroke="#000000"/> 		<path oryx:anchors="top left" id="_898AC640-CB92-4B77-B369-D0612FE497C7frame13" style="opacity:1;fill:none;stroke-width:1.5" d="M 6.3 12.5 L 16.3 12.5" stroke="#000000"/> 		<path oryx:anchors="top left" id="_898AC640-CB92-4B77-B369-D0612FE497C7frame14" style="opacity:1;fill:none;stroke-width:1.5" d="M 6.5 16.5 L 16.5 16.5" stroke="#000000"/> 	</g> 	 	<g id="_898AC640-CB92-4B77-B369-D0612FE497C7userTask" transform="scale(0.7,0.7) translate(8,8)" display="none"> 		<path id="_898AC640-CB92-4B77-B369-D0612FE497C7frame15" oryx:anchors="top left" style="opacity:1;fill:#F4F6F7" stroke="#000000" d="M0.585,24.167h24.083v-7.833c0,0-2.333-3.917-7.083-5.167h-9.25    c-4.417,1.333-7.833,5.75-7.833,5.75L0.585,24.167z"/> 		<path id="_898AC640-CB92-4B77-B369-D0612FE497C7frame16" oryx:anchors="top left" style="opacity:1;fill:none" d="M 6 20 L 6 24" stroke="#000000"/> 		<path id="_898AC640-CB92-4B77-B369-D0612FE497C7frame17" oryx:anchors="top left" style="opacity:1;fill:none" d="M 20 20 L 20 24" stroke="#000000"/> 		<circle id="_898AC640-CB92-4B77-B369-D0612FE497C7frame18" oryx:anchors="top left" fill="black" cx="13.002" cy="5.916" r="5.417" stroke="#000000"/> 		<path id="_898AC640-CB92-4B77-B369-D0612FE497C7frame19" oryx:anchors="top left" style="opacity:1;fill:#F0EFF0;" stroke="#000000" d="M8.043,7.083c0,0,2.814-2.426,5.376-1.807s4.624-0.693,4.624-0.693    c0.25,1.688,0.042,3.75-1.458,5.584c0,0,1.083,0.75,1.083,1.5s0.125,1.875-1,3s-5.5,1.25-6.75,0S8.668,12.834,8.668,12    s0.583-1.25,1.25-1.917C8.835,9.5,7.419,7.708,8.043,7.083z"/> 	</g> 	 	<g id="_898AC640-CB92-4B77-B369-D0612FE497C7serviceTask" transform="scale(0.7,0.7) translate(8,8)" display="none"> 		<polygon oryx:anchors="top left" id="_898AC640-CB92-4B77-B369-D0612FE497C7frame20" style="opacity:1;fill:#ffffff" stroke="#000000" points="15.392,5.064 17.954,2.502 20.347,4.895 17.786,7.455     18.729,9.732 22.353,9.732 22.353,13.115 18.731,13.115 17.788,15.392 20.351,17.955 17.958,20.347 15.397,17.786 13.12,18.729     13.12,22.353 9.737,22.353 9.737,18.731 7.46,17.788 4.897,20.35 2.506,17.958 5.066,15.397 4.124,13.12 0.5,13.12 0.5,9.737     4.121,9.737 5.065,7.461 2.503,4.898 4.895,2.506 7.455,5.066 9.732,4.125 9.732,0.5 13.116,0.5 13.116,4.121 "/> 		<circle oryx:anchors="top left" id="_898AC640-CB92-4B77-B369-D0612FE497C7frame21" style="opacity:1;fill:none" stroke="#000000" cx="11.427" cy="11.426" r="3.714"/> 		<polygon oryx:anchors="top left" id="_898AC640-CB92-4B77-B369-D0612FE497C7frame22" style="opacity:1;fill:#ffffff" stroke="#000000" points="21.392,11.064 23.954,8.502 26.347,10.895 23.786,13.455     24.729,15.732 28.353,15.732 28.353,19.115 24.731,19.115 23.788,21.392 26.351,23.955 23.958,26.347 21.397,23.786 19.12,24.729     19.12,28.353 15.737,28.353 15.737,24.731 13.46,23.788 10.897,26.35 8.506,23.958 11.066,21.397 10.124,19.12 6.5,19.12     6.5,15.737 10.121,15.737 11.065,13.461 8.503,10.898 10.895,8.506 13.455,11.066 15.732,10.125 15.732,6.5 19.116,6.5     19.116,10.121 "/> 		<circle oryx:anchors="top left" id="_898AC640-CB92-4B77-B369-D0612FE497C7frame23" style="opacity:1;fill:none;" stroke="#000000" cx="17.427" cy="17.426" r="3.714"/> 	</g> 	 	<g id="_898AC640-CB92-4B77-B369-D0612FE497C7sendTask" display="none"> 		<path id="_898AC640-CB92-4B77-B369-D0612FE497C7stframe24" oryx:anchors="left top" stroke="#FFFFFF" fill="black" stroke-width="1" d="M8,11 L8,21 L24,21 L24,11 L16,17z"/> 		<path id="_898AC640-CB92-4B77-B369-D0612FE497C7stframe25" oryx:anchors="left top" stroke="#FFFFFF" fill="black" stroke-width="1" d="M7,10 L16,17 L25 10z"/> 	</g> 	 	<g id="_898AC640-CB92-4B77-B369-D0612FE497C7receiveTask" display="none"> 		<path id="_898AC640-CB92-4B77-B369-D0612FE497C7frame26" oryx:anchors="left top" stroke="#000000" fill="none" stroke-width="1" d="M8,11 L8,21 L24,21 L24,11z M8,11 L16,17 L24,11"/> 	</g> 	 	<g id="_898AC640-CB92-4B77-B369-D0612FE497C7none" display="inherit"/>  	<g id="_898AC640-CB92-4B77-B369-D0612FE497C7sequential" display="none">         <path oryx:anchors="bottom" fill="none" stroke="#000000" stroke-width="2" d="M46,76h10M46,72h10 M46,68h10" id="_898AC640-CB92-4B77-B369-D0612FE497C7__898AC640-CB92-4B77-B369-D0612FE497C7_20"/>     </g>   </g></g><g class="children" style="overflow:hidden"/><g class="edge"/></g><g class="controls"><g class="dockers"/><g class="magnets" transform="translate(330, 140)"><g pointer-events="all" display="none" transform="translate(-7, 12)"><circle cx="8" cy="8" r="4" stroke="none" fill="red" fill-opacity="0.3"/></g><g pointer-events="all" display="none" transform="translate(-7, 32)"><circle cx="8" cy="8" r="4" stroke="none" fill="red" fill-opacity="0.3"/></g><g pointer-events="all" display="none" transform="translate(-7, 52)"><circle cx="8" cy="8" r="4" stroke="none" fill="red" fill-opacity="0.3"/></g><g pointer-events="all" display="none" transform="translate(17, 71)"><circle cx="8" cy="8" r="4" stroke="none" fill="red" fill-opacity="0.3"/></g><g pointer-events="all" display="none" transform="translate(42, 71)"><circle cx="8" cy="8" r="4" stroke="none" fill="red" fill-opacity="0.3"/></g><g pointer-events="all" display="none" transform="translate(67, 71)"><circle cx="8" cy="8" r="4" stroke="none" fill="red" fill-opacity="0.3"/></g><g pointer-events="all" display="none" transform="translate(91, 12)"><circle cx="8" cy="8" r="4" stroke="none" fill="red" fill-opacity="0.3"/></g><g pointer-events="all" display="none" transform="translate(91, 32)"><circle cx="8" cy="8" r="4" stroke="none" fill="red" fill-opacity="0.3"/></g><g pointer-events="all" display="none" transform="translate(91, 52)"><circle cx="8" cy="8" r="4" stroke="none" fill="red" fill-opacity="0.3"/></g><g pointer-events="all" display="none" transform="translate(17, -7)"><circle cx="8" cy="8" r="4" stroke="none" fill="red" fill-opacity="0.3"/></g><g pointer-events="all" display="none" transform="translate(42, -7)"><circle cx="8" cy="8" r="4" stroke="none" fill="red" fill-opacity="0.3"/></g><g pointer-events="all" display="none" transform="translate(67, -7)"><circle cx="8" cy="8" r="4" stroke="none" fill="red" fill-opacity="0.3"/></g><g pointer-events="all" display="none" transform="translate(42, 32)"><circle cx="8" cy="8" r="4" stroke="none" fill="red" fill-opacity="0.3"/></g></g></g></g><g id="_88B3394B-AECA-4A3F-A794-C0704E822EC0" bpmn2nodeid="_00AC456D-C433-4730-A2A3-8FA43ADCDBF8"><g class="stencils" transform="translate(465, 166)"><g class="me"><g pointer-events="fill" id="_88B3394B-AECA-4A3F-A794-C0704E822EC0">      <defs id="_88B3394B-AECA-4A3F-A794-C0704E822EC0__88B3394B-AECA-4A3F-A794-C0704E822EC0_5"> 		<radialGradient id="_88B3394B-AECA-4A3F-A794-C0704E822EC0background" cx="10%" cy="10%" r="100%" fx="10%" fy="10%"> 			<stop offset="0%" stop-color="#ffffff" stop-opacity="1" id="_88B3394B-AECA-4A3F-A794-C0704E822EC0__88B3394B-AECA-4A3F-A794-C0704E822EC0_6"/> 			<stop id="_88B3394B-AECA-4A3F-A794-C0704E822EC0fill_el" offset="100%" stop-color="#ff6347" stop-opacity="1"/> 		</radialGradient> 	</defs> 	     <circle id="_88B3394B-AECA-4A3F-A794-C0704E822EC0bg_frame" cx="14" cy="14" r="14" stroke="#000000" fill="url(#_88B3394B-AECA-4A3F-A794-C0704E822EC0background) white" stroke-width="3"/> 	<text font-size="11" id="_88B3394B-AECA-4A3F-A794-C0704E822EC0text_name" x="14" y="30" oryx:align="top center" stroke="black" stroke-width="0pt" letter-spacing="-0.01px" fill="#000000" text-anchor="middle" transform="rotate(0 14 30)" visibility="inherit" oryx:fontSize="11"/>   </g></g><g class="children" style="overflow:hidden"/><g class="edge"/></g><g class="controls"><g class="dockers"/><g class="magnets" transform="translate(465, 166)"><g pointer-events="all" display="none" transform="translate(6, 6)"><circle cx="8" cy="8" r="4" stroke="none" fill="red" fill-opacity="0.3"/></g></g></g></g><g id="_EBE7F958-E839-4564-921B-0BB7C0DB8976" bpmn2nodeid="_DAE39F03-514F-47CA-8B15-DF72EE436D09"><g class="stencils" transform="translate(195, 140)"><g class="me"><g pointer-events="fill" oryx:minimumSize="50 40" id="_EBE7F958-E839-4564-921B-0BB7C0DB8976">   	<defs id="_EBE7F958-E839-4564-921B-0BB7C0DB8976__EBE7F958-E839-4564-921B-0BB7C0DB8976_17"> 		<radialGradient id="_EBE7F958-E839-4564-921B-0BB7C0DB8976background" cx="10%" cy="10%" r="100%" fx="10%" fy="10%"> 			<stop offset="0%" stop-color="#ffffff" stop-opacity="1" id="_EBE7F958-E839-4564-921B-0BB7C0DB8976__EBE7F958-E839-4564-921B-0BB7C0DB8976_18"/> 			<stop id="_EBE7F958-E839-4564-921B-0BB7C0DB8976fill_el" offset="100%" stop-color="#fafad2" stop-opacity="1"/> 		</radialGradient> 		<radialGradient id="_EBE7F958-E839-4564-921B-0BB7C0DB8976borderbackground" cx="10%" cy="10%" r="100%" fx="10%" fy="10%"> 			<stop offset="0%" stop-color="#ffffff" stop-opacity="1" id="_EBE7F958-E839-4564-921B-0BB7C0DB8976__EBE7F958-E839-4564-921B-0BB7C0DB8976_19"/> 			<stop id="_EBE7F958-E839-4564-921B-0BB7C0DB8976fill_border" offset="100%" stop-color="#000000" stop-opacity="1" stroke="#000000"/> 		</radialGradient> 	</defs> 	 	<rect id="_EBE7F958-E839-4564-921B-0BB7C0DB8976text_frame" oryx:anchors="bottom top right left" x="1" y="1" width="94" height="79" rx="10" ry="10" stroke="none" stroke-width="0" fill="none"/> 	<rect id="_EBE7F958-E839-4564-921B-0BB7C0DB8976bg_frame" oryx:resize="vertical horizontal" x="0" y="0" width="100" height="80" rx="10" ry="10" stroke="#000000" stroke-width="1" fill="url(#_EBE7F958-E839-4564-921B-0BB7C0DB8976background) #ffffcc"/> 		<text font-size="12" id="_EBE7F958-E839-4564-921B-0BB7C0DB8976text_name" x="50" y="40" oryx:align="middle center" oryx:fittoelem="text_frame" stroke="black" text-anchor="middle" stroke-width="0pt" letter-spacing="-0.01px" fill="#000000" transform="rotate(0 50 40)" visibility="inherit" oryx:fontSize="12"><tspan x="50" y="40" dy="5">Debug Log</tspan></text>     <g id="_EBE7F958-E839-4564-921B-0BB7C0DB8976manualTask" transform="scale(0.7,0.7) translate(8,8)" display="none">     	<path oryx:anchors="top left" id="_EBE7F958-E839-4564-921B-0BB7C0DB8976frame" style="opacity:1;fill:none;fill-opacity:1;stroke-width:1" d="M0.5,3.751l4.083-3.25c0,0,11.166,0.083,12.083,0.083s-2.417,2.917-1.5,2.917     s11.667,0,12.584,0c1.166,1.708-0.168,3.167-0.834,3.667s0.875,1.917-1,4.417c-0.75,0.25,0.75,1.875-1.333,3.333     c-1.167,0.583,0.583,1.542-1.25,2.833c-1.167,0-20.833,0.083-20.833,0.083l-2-1.333V3.751z" stroke="#000000"/> 		<path id="_EBE7F958-E839-4564-921B-0BB7C0DB8976frame2" oryx:anchors="top left" style="opacity:1;fill:none;stroke-width:2" d="M 13.5 7 L 27 7" stroke="#000000"/> 		<path id="_EBE7F958-E839-4564-921B-0BB7C0DB8976frame3" oryx:anchors="top left" style="opacity:1;fill:none;stroke-width:2" d="M 13.5 11 L 26 11" stroke="#000000"/> 		<path id="_EBE7F958-E839-4564-921B-0BB7C0DB8976frame4" oryx:anchors="top left" style="opacity:1;fill:none;stroke-width:1.5" d="M 14 14.5 L 25 14.5" stroke="#000000"/> 		<path id="_EBE7F958-E839-4564-921B-0BB7C0DB8976frame5" oryx:anchors="top left" style="opacity:1;fill:none;stroke-width:1.5" d="M 8.2 3.1 L 15 3.1" stroke="#000000"/> 	</g> 	 	<g id="_EBE7F958-E839-4564-921B-0BB7C0DB8976businessRuleTask" transform="scale(0.7,0.7) translate(8,8)" display="none"> 		<rect id="_EBE7F958-E839-4564-921B-0BB7C0DB8976frame6" oryx:anchors="top left" x="0" y="0" width="22" height="4" style="opacity:1;fill:#B3B1B3;fill-opacity:1;" stroke="#000000"/> 		<rect id="_EBE7F958-E839-4564-921B-0BB7C0DB8976frame7" oryx:anchors="top left" x="0" y="4" style="opacity:1;fill:none;" width="22" height="12" stroke="#000000"/> 		<path id="_EBE7F958-E839-4564-921B-0BB7C0DB8976frame8" oryx:anchors="top left" style="opacity:1;fill:none;" d="M 0 10 L 22 10" stroke="#000000"/> 		<path id="_EBE7F958-E839-4564-921B-0BB7C0DB8976frame9" oryx:anchors="top left" style="opacity:1; fill:none;" d="M 7 4 L 7 16" stroke="#000000"/> 	</g> 	 	<g id="_EBE7F958-E839-4564-921B-0BB7C0DB8976scriptTask" transform="scale(0.7,0.7) translate(8,8)" display="inherit"> 		<path oryx:anchors="top left" id="_EBE7F958-E839-4564-921B-0BB7C0DB8976frame10" style="opacity:1;fill:none;" stroke="#000000" d="M6.402,0.5h14.5c0,0-5.833,2.833-5.833,5.583s4.417,6,4.417,9.167    s-4.167,5.083-4.167,5.083H0.235c0,0,5-2.667,5-5s-4.583-6.75-4.583-9.25S6.402,0.5,6.402,0.5z"/> 		<path oryx:anchors="top left" id="_EBE7F958-E839-4564-921B-0BB7C0DB8976frame11" style="opacity:1;fill:none;stroke-width:1.5" d="M 3.5 4.5 L 13.5 4.5" stroke="#000000"/> 		<path oryx:anchors="top left" id="_EBE7F958-E839-4564-921B-0BB7C0DB8976frame12" style="opacity:1;fill:none;stroke-width:1.5" d="M 3.8 8.5 L 13.8 8.5" stroke="#000000"/> 		<path oryx:anchors="top left" id="_EBE7F958-E839-4564-921B-0BB7C0DB8976frame13" style="opacity:1;fill:none;stroke-width:1.5" d="M 6.3 12.5 L 16.3 12.5" stroke="#000000"/> 		<path oryx:anchors="top left" id="_EBE7F958-E839-4564-921B-0BB7C0DB8976frame14" style="opacity:1;fill:none;stroke-width:1.5" d="M 6.5 16.5 L 16.5 16.5" stroke="#000000"/> 	</g> 	 	<g id="_EBE7F958-E839-4564-921B-0BB7C0DB8976userTask" transform="scale(0.7,0.7) translate(8,8)" display="none"> 		<path id="_EBE7F958-E839-4564-921B-0BB7C0DB8976frame15" oryx:anchors="top left" style="opacity:1;fill:#F4F6F7" stroke="#000000" d="M0.585,24.167h24.083v-7.833c0,0-2.333-3.917-7.083-5.167h-9.25    c-4.417,1.333-7.833,5.75-7.833,5.75L0.585,24.167z"/> 		<path id="_EBE7F958-E839-4564-921B-0BB7C0DB8976frame16" oryx:anchors="top left" style="opacity:1;fill:none" d="M 6 20 L 6 24" stroke="#000000"/> 		<path id="_EBE7F958-E839-4564-921B-0BB7C0DB8976frame17" oryx:anchors="top left" style="opacity:1;fill:none" d="M 20 20 L 20 24" stroke="#000000"/> 		<circle id="_EBE7F958-E839-4564-921B-0BB7C0DB8976frame18" oryx:anchors="top left" fill="black" cx="13.002" cy="5.916" r="5.417" stroke="#000000"/> 		<path id="_EBE7F958-E839-4564-921B-0BB7C0DB8976frame19" oryx:anchors="top left" style="opacity:1;fill:#F0EFF0;" stroke="#000000" d="M8.043,7.083c0,0,2.814-2.426,5.376-1.807s4.624-0.693,4.624-0.693    c0.25,1.688,0.042,3.75-1.458,5.584c0,0,1.083,0.75,1.083,1.5s0.125,1.875-1,3s-5.5,1.25-6.75,0S8.668,12.834,8.668,12    s0.583-1.25,1.25-1.917C8.835,9.5,7.419,7.708,8.043,7.083z"/> 	</g> 	 	<g id="_EBE7F958-E839-4564-921B-0BB7C0DB8976serviceTask" transform="scale(0.7,0.7) translate(8,8)" display="none"> 		<polygon oryx:anchors="top left" id="_EBE7F958-E839-4564-921B-0BB7C0DB8976frame20" style="opacity:1;fill:#ffffff" stroke="#000000" points="15.392,5.064 17.954,2.502 20.347,4.895 17.786,7.455     18.729,9.732 22.353,9.732 22.353,13.115 18.731,13.115 17.788,15.392 20.351,17.955 17.958,20.347 15.397,17.786 13.12,18.729     13.12,22.353 9.737,22.353 9.737,18.731 7.46,17.788 4.897,20.35 2.506,17.958 5.066,15.397 4.124,13.12 0.5,13.12 0.5,9.737     4.121,9.737 5.065,7.461 2.503,4.898 4.895,2.506 7.455,5.066 9.732,4.125 9.732,0.5 13.116,0.5 13.116,4.121 "/> 		<circle oryx:anchors="top left" id="_EBE7F958-E839-4564-921B-0BB7C0DB8976frame21" style="opacity:1;fill:none" stroke="#000000" cx="11.427" cy="11.426" r="3.714"/> 		<polygon oryx:anchors="top left" id="_EBE7F958-E839-4564-921B-0BB7C0DB8976frame22" style="opacity:1;fill:#ffffff" stroke="#000000" points="21.392,11.064 23.954,8.502 26.347,10.895 23.786,13.455     24.729,15.732 28.353,15.732 28.353,19.115 24.731,19.115 23.788,21.392 26.351,23.955 23.958,26.347 21.397,23.786 19.12,24.729     19.12,28.353 15.737,28.353 15.737,24.731 13.46,23.788 10.897,26.35 8.506,23.958 11.066,21.397 10.124,19.12 6.5,19.12     6.5,15.737 10.121,15.737 11.065,13.461 8.503,10.898 10.895,8.506 13.455,11.066 15.732,10.125 15.732,6.5 19.116,6.5     19.116,10.121 "/> 		<circle oryx:anchors="top left" id="_EBE7F958-E839-4564-921B-0BB7C0DB8976frame23" style="opacity:1;fill:none;" stroke="#000000" cx="17.427" cy="17.426" r="3.714"/> 	</g> 	 	<g id="_EBE7F958-E839-4564-921B-0BB7C0DB8976sendTask" display="none"> 		<path id="_EBE7F958-E839-4564-921B-0BB7C0DB8976stframe24" oryx:anchors="left top" stroke="#FFFFFF" fill="black" stroke-width="1" d="M8,11 L8,21 L24,21 L24,11 L16,17z"/> 		<path id="_EBE7F958-E839-4564-921B-0BB7C0DB8976stframe25" oryx:anchors="left top" stroke="#FFFFFF" fill="black" stroke-width="1" d="M7,10 L16,17 L25 10z"/> 	</g> 	 	<g id="_EBE7F958-E839-4564-921B-0BB7C0DB8976receiveTask" display="none"> 		<path id="_EBE7F958-E839-4564-921B-0BB7C0DB8976frame26" oryx:anchors="left top" stroke="#000000" fill="none" stroke-width="1" d="M8,11 L8,21 L24,21 L24,11z M8,11 L16,17 L24,11"/> 	</g> 	 	<g id="_EBE7F958-E839-4564-921B-0BB7C0DB8976none" display="inherit"/>  	<g id="_EBE7F958-E839-4564-921B-0BB7C0DB8976sequential" display="none">         <path oryx:anchors="bottom" fill="none" stroke="#000000" stroke-width="2" d="M46,76h10M46,72h10 M46,68h10" id="_EBE7F958-E839-4564-921B-0BB7C0DB8976__EBE7F958-E839-4564-921B-0BB7C0DB8976_20"/>     </g>   </g></g><g class="children" style="overflow:hidden"/><g class="edge"/></g><g class="controls"><g class="dockers"/><g class="magnets" transform="translate(195, 140)"><g pointer-events="all" display="none" transform="translate(-7, 12)"><circle cx="8" cy="8" r="4" stroke="none" fill="red" fill-opacity="0.3"/></g><g pointer-events="all" display="none" transform="translate(-7, 32)"><circle cx="8" cy="8" r="4" stroke="none" fill="red" fill-opacity="0.3"/></g><g pointer-events="all" display="none" transform="translate(-7, 52)"><circle cx="8" cy="8" r="4" stroke="none" fill="red" fill-opacity="0.3"/></g><g pointer-events="all" display="none" transform="translate(17, 71)"><circle cx="8" cy="8" r="4" stroke="none" fill="red" fill-opacity="0.3"/></g><g pointer-events="all" display="none" transform="translate(42, 71)"><circle cx="8" cy="8" r="4" stroke="none" fill="red" fill-opacity="0.3"/></g><g pointer-events="all" display="none" transform="translate(67, 71)"><circle cx="8" cy="8" r="4" stroke="none" fill="red" fill-opacity="0.3"/></g><g pointer-events="all" display="none" transform="translate(91, 12)"><circle cx="8" cy="8" r="4" stroke="none" fill="red" fill-opacity="0.3"/></g><g pointer-events="all" display="none" transform="translate(91, 32)"><circle cx="8" cy="8" r="4" stroke="none" fill="red" fill-opacity="0.3"/></g><g pointer-events="all" display="none" transform="translate(91, 52)"><circle cx="8" cy="8" r="4" stroke="none" fill="red" fill-opacity="0.3"/></g><g pointer-events="all" display="none" transform="translate(17, -7)"><circle cx="8" cy="8" r="4" stroke="none" fill="red" fill-opacity="0.3"/></g><g pointer-events="all" display="none" transform="translate(42, -7)"><circle cx="8" cy="8" r="4" stroke="none" fill="red" fill-opacity="0.3"/></g><g pointer-events="all" display="none" transform="translate(67, -7)"><circle cx="8" cy="8" r="4" stroke="none" fill="red" fill-opacity="0.3"/></g><g pointer-events="all" display="none" transform="translate(42, 32)"><circle cx="8" cy="8" r="4" stroke="none" fill="red" fill-opacity="0.3"/></g></g></g></g></g><g class="edge"><g id="_C1040B52-1EE1-44E2-B83D-1DB914B625DC" bpmn2nodeid="_C4A52E97-C6FB-4672-BF1C-27F0F34CA3BA"><g class="stencils"><g class="me"><g pointer-events="painted" bpmn2nodeid="_87B41DCF-43DB-4FFA-8620-96687791EBEE"><path id="_C1040B52-1EE1-44E2-B83D-1DB914B625DC_1" d="M430.5 180L464.078125 180 " stroke="#000000" fill="none" stroke-width="2" stroke-linecap="round" stroke-linejoin="round" marker-start="url(#_C1040B52-1EE1-44E2-B83D-1DB914B625DCstart)" marker-end="url(#_C1040B52-1EE1-44E2-B83D-1DB914B625DCend)"/></g><text id="_C1040B52-1EE1-44E2-B83D-1DB914B625DCtext_name" font-size="12" x="444.5" y="166" oryx:edgePosition="startTop" stroke-width="0pt" letter-spacing="-0.01px" fill="#000000" text-anchor="start" transform="rotate(360 430.5 180)" visibility="inherit" oryx:fontSize="12"/></g><g class="children" style="overflow:hidden"/><g class="edge"/></g><g class="controls"><g class="dockers"/><g class="magnets"/></g></g><g id="_9F43C141-8D70-4C0A-B80F-9C18913FFDD9" bpmn2nodeid="_A4BFFC62-51D3-417E-9C33-E48155A82BDF"><g class="stencils"><g class="me"><g pointer-events="painted" bpmn2nodeid="_EF28CA33-7DD3-444B-8956-CA6005222B0C"><path id="_9F43C141-8D70-4C0A-B80F-9C18913FFDD9_1" d="M150.609375 180L194.15625 180 " stroke="#000000" fill="none" stroke-width="2" stroke-linecap="round" stroke-linejoin="round" marker-start="url(#_9F43C141-8D70-4C0A-B80F-9C18913FFDD9start)" marker-end="url(#_9F43C141-8D70-4C0A-B80F-9C18913FFDD9end)"/></g><text id="_9F43C141-8D70-4C0A-B80F-9C18913FFDD9text_name" font-size="12" x="164.609375" y="166" oryx:edgePosition="startTop" stroke-width="0pt" letter-spacing="-0.01px" fill="#000000" text-anchor="start" transform="rotate(360 150.609375 180)" visibility="inherit" oryx:fontSize="12"/></g><g class="children" style="overflow:hidden"/><g class="edge"/></g><g class="controls"><g class="dockers"/><g class="magnets"/></g></g><g id="_B8634AB8-D7A0-4287-A20D-9F35DED76285" bpmn2nodeid="_FD9B3167-A06E-47CD-A78F-AB26E0A71B98"><g class="stencils"><g class="me"><g pointer-events="painted" bpmn2nodeid="_210E0C99-7654-450C-BCFC-D09B175275B1"><path id="_B8634AB8-D7A0-4287-A20D-9F35DED76285_1" d="M295.5703125 180L329.4296875 180 " stroke="#000000" fill="none" stroke-width="2" stroke-linecap="round" stroke-linejoin="round" marker-start="url(#_B8634AB8-D7A0-4287-A20D-9F35DED76285start)" marker-end="url(#_B8634AB8-D7A0-4287-A20D-9F35DED76285end)"/></g><text id="_B8634AB8-D7A0-4287-A20D-9F35DED76285text_name" font-size="12" x="309.5703125" y="166" oryx:edgePosition="startTop" stroke-width="0pt" letter-spacing="-0.01px" fill="#000000" text-anchor="start" transform="rotate(360 295.5703125 180)" visibility="inherit" oryx:fontSize="12"/></g><g class="children" style="overflow:hidden"/><g class="edge"/></g><g class="controls"><g class="dockers"/><g class="magnets"/></g></g></g><text id="_31D5C5CA-E488-407A-A9CE-38D2D4176971" style="stroke-width:1;fill:rgb(177,194,214);font-family:arial;font-weight:bold" font-size="12" onclick="ORYX.Plugins.CanvasTitle.openTextualAnalysis()" onmouseover="ORYX.Plugins.CanvasTitle.addToolTip('_31D5C5CA-E488-407A-A9CE-38D2D4176971')" transform="translate(10, 20)">recommendation_rules v.1.12 (org.acme.ViewRecommendation)</text></g></g></svg>