<svg xmlns="http://www.w3.org/2000/svg" xmlns:oryx="http://oryx-editor.org" id="_58A6C380-87C7-453B-A93B-D5A7565D15DC" width="408" height="259" xmlns:xlink="http://www.w3.org/1999/xlink" xmlns:svg="http://www.w3.org/2000/svg"><defs><marker id="_A10D8190-BE11-45FC-8244-E5A755F004E1start" refX="1" refY="5" markerUnits="userSpaceOnUse" markerWidth="17" markerHeight="11" orient="auto" fill="#000000" stroke="#000000"> 	  		<path id="_A10D8190-BE11-45FC-8244-E5A755F004E1conditional" d="M 0 5 L 8 0 L 16 5 L 8 10 L 0 5" fill="white" stroke="#000000" stroke-width="1" display="none"/> 			<path id="_A10D8190-BE11-45FC-8244-E5A755F004E1default" d="M 5 0 L 11 10" fill="white" stroke="#000000" stroke-width="1" display="none"/> 	  	</marker><marker id="_A10D8190-BE11-45FC-8244-E5A755F004E1end" refX="15" refY="6" markerUnits="userSpaceOnUse" markerWidth="15" markerHeight="12" orient="auto" fill="#000000" stroke="#000000"> 	  		<path id="_A10D8190-BE11-45FC-8244-E5A755F004E1frame2" d="M 0 1 L 15 6 L 0 11z" fill="#000000" stroke="#000000" stroke-linejoin="round" stroke-width="2"/> 	  	</marker><marker id="_0AAFB9BF-D8AC-4EC3-9498-84EC3C7A3766start" refX="1" refY="5" markerUnits="userSpaceOnUse" markerWidth="17" markerHeight="11" orient="auto" fill="#000000" stroke="#000000"> 	  		<path id="_0AAFB9BF-D8AC-4EC3-9498-84EC3C7A3766conditional" d="M 0 5 L 8 0 L 16 5 L 8 10 L 0 5" fill="white" stroke="#000000" stroke-width="1" display="none"/> 			<path id="_0AAFB9BF-D8AC-4EC3-9498-84EC3C7A3766default" d="M 5 0 L 11 10" fill="white" stroke="#000000" stroke-width="1" display="none"/> 	  	</marker><marker id="_0AAFB9BF-D8AC-4EC3-9498-84EC3C7A3766end" refX="15" refY="6" markerUnits="userSpaceOnUse" markerWidth="15" markerHeight="12" orient="auto" fill="#000000" stroke="#000000"> 	  		<path id="_0AAFB9BF-D8AC-4EC3-9498-84EC3C7A3766frame2" d="M 0 1 L 15 6 L 0 11z" fill="#000000" stroke="#000000" stroke-linejoin="round" stroke-width="2"/> 	  	</marker></defs><g stroke="none" font-family="Verdana, sans-serif" font-size-adjust="none" font-style="normal" font-variant="normal" font-weight="normal" line-heigth="normal" font-size="12"><g class="stencils" transform="translate(15, 14)"><g class="me"/><g class="children"><g id="_171FB164-041F-4EC0-B171-ED94B12BD05B" bpmn2nodeid="processStartEvent"><g class="stencils" transform="translate(120, 165)"><g class="me"><g pointer-events="fill" id="_171FB164-041F-4EC0-B171-ED94B12BD05B">        <defs id="_171FB164-041F-4EC0-B171-ED94B12BD05B__171FB164-041F-4EC0-B171-ED94B12BD05B_5"> 		<radialGradient id="_171FB164-041F-4EC0-B171-ED94B12BD05Bbackground" cx="10%" cy="10%" r="100%" fx="10%" fy="10%"> 			<stop offset="0%" stop-color="#ffffff" stop-opacity="1" id="_171FB164-041F-4EC0-B171-ED94B12BD05B__171FB164-041F-4EC0-B171-ED94B12BD05B_6"/> 			<stop id="_171FB164-041F-4EC0-B171-ED94B12BD05Bfill_el" offset="100%" stop-color="#9acd32" stop-opacity="1"/> 		</radialGradient> 	</defs> 	     <circle id="_171FB164-041F-4EC0-B171-ED94B12BD05Bbg_frame" cx="15" cy="15" r="15" stroke="#000000" fill="url(#_171FB164-041F-4EC0-B171-ED94B12BD05Bbackground) white" stroke-width="1" style="stroke-dasharray: 5.5, 3"/>      <circle id="_171FB164-041F-4EC0-B171-ED94B12BD05Bframe" cx="15" cy="15" r="15" stroke="#000000" fill="none" stroke-width="1" display="inherit"/>  	<text font-size="11" id="_171FB164-041F-4EC0-B171-ED94B12BD05Btext_name" x="15" y="32" oryx:align="top center" stroke="black" stroke-width="0pt" letter-spacing="-0.01px" fill="#000000" text-anchor="middle" transform="rotate(0 15 32)" visibility="inherit" oryx:fontSize="11"/>   </g></g><g class="children" style="overflow:hidden"/><g class="edge"/></g><g class="controls"><g class="dockers"/><g class="magnets" transform="translate(120, 165)"><g pointer-events="all" display="none" transform="translate(7, 7)"><circle cx="8" cy="8" r="4" stroke="none" fill="red" fill-opacity="0.3"/></g></g></g></g><g id="_8F9FB3D9-9FB0-400F-B503-C9EB281E144F" bpmn2nodeid="_A5967637-DD5D-4897-9A3A-20D1DB5DFDA1"><g class="stencils" transform="translate(195, 140)"><g class="me"><g pointer-events="fill" oryx:minimumSize="50 40" id="_8F9FB3D9-9FB0-400F-B503-C9EB281E144F">   	<defs id="_8F9FB3D9-9FB0-400F-B503-C9EB281E144F__8F9FB3D9-9FB0-400F-B503-C9EB281E144F_17"> 		<radialGradient id="_8F9FB3D9-9FB0-400F-B503-C9EB281E144Fbackground" cx="10%" cy="10%" r="100%" fx="10%" fy="10%"> 			<stop offset="0%" stop-color="#ffffff" stop-opacity="1" id="_8F9FB3D9-9FB0-400F-B503-C9EB281E144F__8F9FB3D9-9FB0-400F-B503-C9EB281E144F_18"/> 			<stop id="_8F9FB3D9-9FB0-400F-B503-C9EB281E144Ffill_el" offset="100%" stop-color="#fafad2" stop-opacity="1"/> 		</radialGradient> 		<radialGradient id="_8F9FB3D9-9FB0-400F-B503-C9EB281E144Fborderbackground" cx="10%" cy="10%" r="100%" fx="10%" fy="10%"> 			<stop offset="0%" stop-color="#ffffff" stop-opacity="1" id="_8F9FB3D9-9FB0-400F-B503-C9EB281E144F__8F9FB3D9-9FB0-400F-B503-C9EB281E144F_19"/> 			<stop id="_8F9FB3D9-9FB0-400F-B503-C9EB281E144Ffill_border" offset="100%" stop-color="#000000" stop-opacity="1" stroke="#000000"/> 		</radialGradient> 	</defs> 	 	<rect id="_8F9FB3D9-9FB0-400F-B503-C9EB281E144Ftext_frame" oryx:anchors="bottom top right left" x="1" y="1" width="94" height="79" rx="10" ry="10" stroke="none" stroke-width="0" fill="none"/> 	<rect id="_8F9FB3D9-9FB0-400F-B503-C9EB281E144Fbg_frame" oryx:resize="vertical horizontal" x="0" y="0" width="100" height="80" rx="10" ry="10" stroke="#000000" stroke-width="1" fill="url(#_8F9FB3D9-9FB0-400F-B503-C9EB281E144Fbackground) #ffffcc"/> 		<text font-size="12" id="_8F9FB3D9-9FB0-400F-B503-C9EB281E144Ftext_name" x="50" y="40" oryx:align="middle center" oryx:fittoelem="text_frame" stroke="black" text-anchor="middle" stroke-width="0pt" letter-spacing="-0.01px" fill="#000000" transform="rotate(0 50 40)" visibility="inherit" oryx:fontSize="12"><tspan x="50" y="40" dy="5" id="ext-gen613">Price Rules</tspan></text>     <g id="_8F9FB3D9-9FB0-400F-B503-C9EB281E144FmanualTask" transform="scale(0.7,0.7) translate(8,8)" display="none">     	<path oryx:anchors="top left" id="_8F9FB3D9-9FB0-400F-B503-C9EB281E144Fframe" style="opacity:1;fill:none;fill-opacity:1;stroke-width:1" d="M0.5,3.751l4.083-3.25c0,0,11.166,0.083,12.083,0.083s-2.417,2.917-1.5,2.917     s11.667,0,12.584,0c1.166,1.708-0.168,3.167-0.834,3.667s0.875,1.917-1,4.417c-0.75,0.25,0.75,1.875-1.333,3.333     c-1.167,0.583,0.583,1.542-1.25,2.833c-1.167,0-20.833,0.083-20.833,0.083l-2-1.333V3.751z" stroke="#000000"/> 		<path id="_8F9FB3D9-9FB0-400F-B503-C9EB281E144Fframe2" oryx:anchors="top left" style="opacity:1;fill:none;stroke-width:2" d="M 13.5 7 L 27 7" stroke="#000000"/> 		<path id="_8F9FB3D9-9FB0-400F-B503-C9EB281E144Fframe3" oryx:anchors="top left" style="opacity:1;fill:none;stroke-width:2" d="M 13.5 11 L 26 11" stroke="#000000"/> 		<path id="_8F9FB3D9-9FB0-400F-B503-C9EB281E144Fframe4" oryx:anchors="top left" style="opacity:1;fill:none;stroke-width:1.5" d="M 14 14.5 L 25 14.5" stroke="#000000"/> 		<path id="_8F9FB3D9-9FB0-400F-B503-C9EB281E144Fframe5" oryx:anchors="top left" style="opacity:1;fill:none;stroke-width:1.5" d="M 8.2 3.1 L 15 3.1" stroke="#000000"/> 	</g> 	 	<g id="_8F9FB3D9-9FB0-400F-B503-C9EB281E144FbusinessRuleTask" transform="scale(0.7,0.7) translate(8,8)" display="inherit"> 		<rect id="_8F9FB3D9-9FB0-400F-B503-C9EB281E144Fframe6" oryx:anchors="top left" x="0" y="0" width="22" height="4" style="opacity:1;fill:#B3B1B3;fill-opacity:1;" stroke="#000000"/> 		<rect id="_8F9FB3D9-9FB0-400F-B503-C9EB281E144Fframe7" oryx:anchors="top left" x="0" y="4" style="opacity:1;fill:none;" width="22" height="12" stroke="#000000"/> 		<path id="_8F9FB3D9-9FB0-400F-B503-C9EB281E144Fframe8" oryx:anchors="top left" style="opacity:1;fill:none;" d="M 0 10 L 22 10" stroke="#000000"/> 		<path id="_8F9FB3D9-9FB0-400F-B503-C9EB281E144Fframe9" oryx:anchors="top left" style="opacity:1; fill:none;" d="M 7 4 L 7 16" stroke="#000000"/> 	</g> 	 	<g id="_8F9FB3D9-9FB0-400F-B503-C9EB281E144FscriptTask" transform="scale(0.7,0.7) translate(8,8)" display="none"> 		<path oryx:anchors="top left" id="_8F9FB3D9-9FB0-400F-B503-C9EB281E144Fframe10" style="opacity:1;fill:none;" stroke="#000000" d="M6.402,0.5h14.5c0,0-5.833,2.833-5.833,5.583s4.417,6,4.417,9.167    s-4.167,5.083-4.167,5.083H0.235c0,0,5-2.667,5-5s-4.583-6.75-4.583-9.25S6.402,0.5,6.402,0.5z"/> 		<path oryx:anchors="top left" id="_8F9FB3D9-9FB0-400F-B503-C9EB281E144Fframe11" style="opacity:1;fill:none;stroke-width:1.5" d="M 3.5 4.5 L 13.5 4.5" stroke="#000000"/> 		<path oryx:anchors="top left" id="_8F9FB3D9-9FB0-400F-B503-C9EB281E144Fframe12" style="opacity:1;fill:none;stroke-width:1.5" d="M 3.8 8.5 L 13.8 8.5" stroke="#000000"/> 		<path oryx:anchors="top left" id="_8F9FB3D9-9FB0-400F-B503-C9EB281E144Fframe13" style="opacity:1;fill:none;stroke-width:1.5" d="M 6.3 12.5 L 16.3 12.5" stroke="#000000"/> 		<path oryx:anchors="top left" id="_8F9FB3D9-9FB0-400F-B503-C9EB281E144Fframe14" style="opacity:1;fill:none;stroke-width:1.5" d="M 6.5 16.5 L 16.5 16.5" stroke="#000000"/> 	</g> 	 	<g id="_8F9FB3D9-9FB0-400F-B503-C9EB281E144FuserTask" transform="scale(0.7,0.7) translate(8,8)" display="none"> 		<path id="_8F9FB3D9-9FB0-400F-B503-C9EB281E144Fframe15" oryx:anchors="top left" style="opacity:1;fill:#F4F6F7" stroke="#000000" d="M0.585,24.167h24.083v-7.833c0,0-2.333-3.917-7.083-5.167h-9.25    c-4.417,1.333-7.833,5.75-7.833,5.75L0.585,24.167z"/> 		<path id="_8F9FB3D9-9FB0-400F-B503-C9EB281E144Fframe16" oryx:anchors="top left" style="opacity:1;fill:none" d="M 6 20 L 6 24" stroke="#000000"/> 		<path id="_8F9FB3D9-9FB0-400F-B503-C9EB281E144Fframe17" oryx:anchors="top left" style="opacity:1;fill:none" d="M 20 20 L 20 24" stroke="#000000"/> 		<circle id="_8F9FB3D9-9FB0-400F-B503-C9EB281E144Fframe18" oryx:anchors="top left" fill="black" cx="13.002" cy="5.916" r="5.417" stroke="#000000"/> 		<path id="_8F9FB3D9-9FB0-400F-B503-C9EB281E144Fframe19" oryx:anchors="top left" style="opacity:1;fill:#F0EFF0;" stroke="#000000" d="M8.043,7.083c0,0,2.814-2.426,5.376-1.807s4.624-0.693,4.624-0.693    c0.25,1.688,0.042,3.75-1.458,5.584c0,0,1.083,0.75,1.083,1.5s0.125,1.875-1,3s-5.5,1.25-6.75,0S8.668,12.834,8.668,12    s0.583-1.25,1.25-1.917C8.835,9.5,7.419,7.708,8.043,7.083z"/> 	</g> 	 	<g id="_8F9FB3D9-9FB0-400F-B503-C9EB281E144FserviceTask" transform="scale(0.7,0.7) translate(8,8)" display="none"> 		<polygon oryx:anchors="top left" id="_8F9FB3D9-9FB0-400F-B503-C9EB281E144Fframe20" style="opacity:1;fill:#ffffff" stroke="#000000" points="15.392,5.064 17.954,2.502 20.347,4.895 17.786,7.455     18.729,9.732 22.353,9.732 22.353,13.115 18.731,13.115 17.788,15.392 20.351,17.955 17.958,20.347 15.397,17.786 13.12,18.729     13.12,22.353 9.737,22.353 9.737,18.731 7.46,17.788 4.897,20.35 2.506,17.958 5.066,15.397 4.124,13.12 0.5,13.12 0.5,9.737     4.121,9.737 5.065,7.461 2.503,4.898 4.895,2.506 7.455,5.066 9.732,4.125 9.732,0.5 13.116,0.5 13.116,4.121 "/> 		<circle oryx:anchors="top left" id="_8F9FB3D9-9FB0-400F-B503-C9EB281E144Fframe21" style="opacity:1;fill:none" stroke="#000000" cx="11.427" cy="11.426" r="3.714"/> 		<polygon oryx:anchors="top left" id="_8F9FB3D9-9FB0-400F-B503-C9EB281E144Fframe22" style="opacity:1;fill:#ffffff" stroke="#000000" points="21.392,11.064 23.954,8.502 26.347,10.895 23.786,13.455     24.729,15.732 28.353,15.732 28.353,19.115 24.731,19.115 23.788,21.392 26.351,23.955 23.958,26.347 21.397,23.786 19.12,24.729     19.12,28.353 15.737,28.353 15.737,24.731 13.46,23.788 10.897,26.35 8.506,23.958 11.066,21.397 10.124,19.12 6.5,19.12     6.5,15.737 10.121,15.737 11.065,13.461 8.503,10.898 10.895,8.506 13.455,11.066 15.732,10.125 15.732,6.5 19.116,6.5     19.116,10.121 "/> 		<circle oryx:anchors="top left" id="_8F9FB3D9-9FB0-400F-B503-C9EB281E144Fframe23" style="opacity:1;fill:none;" stroke="#000000" cx="17.427" cy="17.426" r="3.714"/> 	</g> 	 	<g id="_8F9FB3D9-9FB0-400F-B503-C9EB281E144FsendTask" display="none"> 		<path id="_8F9FB3D9-9FB0-400F-B503-C9EB281E144Fstframe24" oryx:anchors="left top" stroke="#FFFFFF" fill="black" stroke-width="1" d="M8,11 L8,21 L24,21 L24,11 L16,17z"/> 		<path id="_8F9FB3D9-9FB0-400F-B503-C9EB281E144Fstframe25" oryx:anchors="left top" stroke="#FFFFFF" fill="black" stroke-width="1" d="M7,10 L16,17 L25 10z"/> 	</g> 	 	<g id="_8F9FB3D9-9FB0-400F-B503-C9EB281E144FreceiveTask" display="none"> 		<path id="_8F9FB3D9-9FB0-400F-B503-C9EB281E144Fframe26" oryx:anchors="left top" stroke="#000000" fill="none" stroke-width="1" d="M8,11 L8,21 L24,21 L24,11z M8,11 L16,17 L24,11"/> 	</g> 	 	<g id="_8F9FB3D9-9FB0-400F-B503-C9EB281E144Fnone" display="inherit"/>  	<g id="_8F9FB3D9-9FB0-400F-B503-C9EB281E144Fsequential" display="none">         <path oryx:anchors="bottom" fill="none" stroke="#000000" stroke-width="2" d="M46,76h10M46,72h10 M46,68h10" id="_8F9FB3D9-9FB0-400F-B503-C9EB281E144F__8F9FB3D9-9FB0-400F-B503-C9EB281E144F_20"/>     </g>   </g></g><g class="children" style="overflow:hidden"/><g class="edge"/></g><g class="controls"><g class="dockers"/><g class="magnets" transform="translate(195, 140)"><g pointer-events="all" display="none" transform="translate(-7, 12)"><circle cx="8" cy="8" r="4" stroke="none" fill="red" fill-opacity="0.3"/></g><g pointer-events="all" display="none" transform="translate(-7, 32)"><circle cx="8" cy="8" r="4" stroke="none" fill="red" fill-opacity="0.3"/></g><g pointer-events="all" display="none" transform="translate(-7, 52)"><circle cx="8" cy="8" r="4" stroke="none" fill="red" fill-opacity="0.3"/></g><g pointer-events="all" display="none" transform="translate(17, 71)"><circle cx="8" cy="8" r="4" stroke="none" fill="red" fill-opacity="0.3"/></g><g pointer-events="all" display="none" transform="translate(42, 71)"><circle cx="8" cy="8" r="4" stroke="none" fill="red" fill-opacity="0.3"/></g><g pointer-events="all" display="none" transform="translate(67, 71)"><circle cx="8" cy="8" r="4" stroke="none" fill="red" fill-opacity="0.3"/></g><g pointer-events="all" display="none" transform="translate(91, 12)"><circle cx="8" cy="8" r="4" stroke="none" fill="red" fill-opacity="0.3"/></g><g pointer-events="all" display="none" transform="translate(91, 32)"><circle cx="8" cy="8" r="4" stroke="none" fill="red" fill-opacity="0.3"/></g><g pointer-events="all" display="none" transform="translate(91, 52)"><circle cx="8" cy="8" r="4" stroke="none" fill="red" fill-opacity="0.3"/></g><g pointer-events="all" display="none" transform="translate(17, -7)"><circle cx="8" cy="8" r="4" stroke="none" fill="red" fill-opacity="0.3"/></g><g pointer-events="all" display="none" transform="translate(42, -7)"><circle cx="8" cy="8" r="4" stroke="none" fill="red" fill-opacity="0.3"/></g><g pointer-events="all" display="none" transform="translate(67, -7)"><circle cx="8" cy="8" r="4" stroke="none" fill="red" fill-opacity="0.3"/></g><g pointer-events="all" display="none" transform="translate(42, 32)"><circle cx="8" cy="8" r="4" stroke="none" fill="red" fill-opacity="0.3"/></g></g></g></g><g id="_208E8424-0A8B-4643-A7C8-6DA156AD1982" bpmn2nodeid="_F2D49C92-8B0E-4A48-9723-C2030F067C18"><g class="stencils" transform="translate(340, 166)"><g class="me"><g pointer-events="fill" id="_208E8424-0A8B-4643-A7C8-6DA156AD1982">      <defs id="_208E8424-0A8B-4643-A7C8-6DA156AD1982__208E8424-0A8B-4643-A7C8-6DA156AD1982_5"> 		<radialGradient id="_208E8424-0A8B-4643-A7C8-6DA156AD1982background" cx="10%" cy="10%" r="100%" fx="10%" fy="10%"> 			<stop offset="0%" stop-color="#ffffff" stop-opacity="1" id="_208E8424-0A8B-4643-A7C8-6DA156AD1982__208E8424-0A8B-4643-A7C8-6DA156AD1982_6"/> 			<stop id="_208E8424-0A8B-4643-A7C8-6DA156AD1982fill_el" offset="100%" stop-color="#ff6347" stop-opacity="1"/> 		</radialGradient> 	</defs> 	     <circle id="_208E8424-0A8B-4643-A7C8-6DA156AD1982bg_frame" cx="14" cy="14" r="14" stroke="#000000" fill="url(#_208E8424-0A8B-4643-A7C8-6DA156AD1982background) white" stroke-width="3"/> 	<text font-size="11" id="_208E8424-0A8B-4643-A7C8-6DA156AD1982text_name" x="14" y="30" oryx:align="top center" stroke="black" stroke-width="0pt" letter-spacing="-0.01px" fill="#000000" text-anchor="middle" transform="rotate(0 14 30)" visibility="inherit" oryx:fontSize="11"/>   </g></g><g class="children" style="overflow:hidden"/><g class="edge"/></g><g class="controls"><g class="dockers"/><g class="magnets" transform="translate(340, 166)"><g pointer-events="all" display="none" transform="translate(6, 6)"><circle cx="8" cy="8" r="4" stroke="none" fill="red" fill-opacity="0.3"/></g></g></g></g></g><g class="edge"><g id="_A10D8190-BE11-45FC-8244-E5A755F004E1" bpmn2nodeid="_98B0BDE5-0323-4679-B283-4C0999C711C7"><g class="stencils"><g class="me"><g pointer-events="painted" bpmn2nodeid="_710E4ECC-0010-4CA9-BA46-2DC81CB1DF95"><path id="_A10D8190-BE11-45FC-8244-E5A755F004E1_1" d="M150.609375 180L194.15625 180 " stroke="#000000" fill="none" stroke-width="2" stroke-linecap="round" stroke-linejoin="round" marker-start="url(#_A10D8190-BE11-45FC-8244-E5A755F004E1start)" marker-end="url(#_A10D8190-BE11-45FC-8244-E5A755F004E1end)"/></g><text id="_A10D8190-BE11-45FC-8244-E5A755F004E1text_name" font-size="12" x="164.609375" y="166" oryx:edgePosition="startTop" stroke-width="0pt" letter-spacing="-0.01px" fill="#000000" text-anchor="start" transform="rotate(360 150.609375 180)" visibility="inherit" oryx:fontSize="12"/></g><g class="children" style="overflow:hidden"/><g class="edge"/></g><g class="controls"><g class="dockers"/><g class="magnets"/></g></g><g id="_0AAFB9BF-D8AC-4EC3-9498-84EC3C7A3766" bpmn2nodeid="_7CBB2B92-0FAD-43CF-ABBD-3584708F1F18"><g class="stencils"><g class="me"><g pointer-events="painted" bpmn2nodeid="_6FF6F13A-6AB6-4962-A6F3-EB93EBE2DCF3"><path id="_0AAFB9BF-D8AC-4EC3-9498-84EC3C7A3766_1" d="M295.390625 180L339.375 180 " stroke="#000000" fill="none" stroke-width="2" stroke-linecap="round" stroke-linejoin="round" marker-start="url(#_0AAFB9BF-D8AC-4EC3-9498-84EC3C7A3766start)" marker-end="url(#_0AAFB9BF-D8AC-4EC3-9498-84EC3C7A3766end)"/></g><text id="_0AAFB9BF-D8AC-4EC3-9498-84EC3C7A3766text_name" font-size="12" x="309.390625" y="166" oryx:edgePosition="startTop" stroke-width="0pt" letter-spacing="-0.01px" fill="#000000" text-anchor="start" transform="rotate(360 295.390625 180)" visibility="inherit" oryx:fontSize="12"/></g><g class="children" style="overflow:hidden"/><g class="edge"/></g><g class="controls"><g class="dockers"/><g class="magnets"/></g></g></g><text id="_14B4102C-5E6F-42C7-9831-EB2E6A266AD7" style="stroke-width:1;fill:rgb(177,194,214);font-family:arial;font-weight:bold" font-size="12" onclick="ORYX.Plugins.CanvasTitle.openTextualAnalysis()" onmouseover="ORYX.Plugins.CanvasTitle.addToolTip('_14B4102C-5E6F-42C7-9831-EB2E6A266AD7')" transform="translate(10, 20)">price-calculation v.1.0 (org.acme.PriceCalculation)</text></g></g></svg>